<svg xmlns="http://www.w3.org/2000/svg" viewBox="0 0 520 320" role="img" aria-label="La Terrasse Bercy — Brasserie Paris 12">
  <title>La Terrasse Bercy</title>
  <defs>
    <style>
      .ltw-wordmark { font-family: 'Cormorant Garamond', 'Playfair Display', 'Didot', 'Bodoni 72', Georgia, serif; font-weight: 600; fill: #FAF5EC; letter-spacing: 0.04em; }
      .ltw-sub { font-family: 'Cormorant Garamond', 'Playfair Display', Georgia, serif; font-style: italic; font-weight: 500; fill: #FAF5EC; letter-spacing: 0.42em; }
      .ltw-tag { font-family: 'Inter', 'Helvetica Neue', Arial, sans-serif; font-weight: 500; fill: #FAF5EC; letter-spacing: 0.38em; }
    </style>
  </defs>

  <g transform="translate(260, 70)">
    <line x1="-115" y1="-10" x2="115" y2="-10" stroke="#FAF5EC" stroke-width="1.6"/>
    <line x1="-110" y1="0" x2="110" y2="0" stroke="#FAF5EC" stroke-width="3"/>
    <path d="M -110 0 q 11 18 22 0 q 11 18 22 0 q 11 18 22 0 q 11 18 22 0 q 11 18 22 0 q 11 18 22 0 q 11 18 22 0 q 11 18 22 0 q 11 18 22 0 q 11 18 22 0"
          fill="none" stroke="#FAF5EC" stroke-width="3" stroke-linecap="round"/>
    <circle cx="-110" cy="0" r="3.5" fill="#FAF5EC"/>
    <circle cx="-66" cy="0" r="3" fill="#FAF5EC"/>
    <circle cx="-22" cy="0" r="3" fill="#FAF5EC"/>
    <circle cx="22" cy="0" r="3" fill="#FAF5EC"/>
    <circle cx="66" cy="0" r="3" fill="#FAF5EC"/>
    <circle cx="110" cy="0" r="3.5" fill="#FAF5EC"/>
    <line x1="-110" y1="-10" x2="-110" y2="-30" stroke="#FAF5EC" stroke-width="2.5"/>
    <line x1="110" y1="-10" x2="110" y2="-30" stroke="#FAF5EC" stroke-width="2.5"/>
    <g transform="translate(0,-22)">
      <path d="M 0 -8 L 2 -2 L 8 0 L 2 2 L 0 8 L -2 2 L -8 0 L -2 -2 Z" fill="#FAF5EC"/>
    </g>
  </g>

  <text x="260" y="130" text-anchor="middle" class="ltw-sub" font-size="20">LA</text>
  <text x="260" y="200" text-anchor="middle" class="ltw-wordmark" font-size="68">TERRASSE</text>

  <g transform="translate(260, 240)">
    <line x1="-110" y1="0" x2="-46" y2="0" stroke="#FAF5EC" stroke-width="1.2"/>
    <circle cx="-38" cy="0" r="2" fill="#FAF5EC"/>
    <text x="0" y="6" text-anchor="middle" class="ltw-sub" font-size="24">BERCY</text>
    <circle cx="38" cy="0" r="2" fill="#FAF5EC"/>
    <line x1="46" y1="0" x2="110" y2="0" stroke="#FAF5EC" stroke-width="1.2"/>
  </g>

  <text x="260" y="282" text-anchor="middle" class="ltw-tag" font-size="11">BRASSERIE  ·  PARIS 12</text>
</svg>
